<?xml version="1.0" standalone="no"?><!DOCTYPE svg PUBLIC "-//W3C//DTD SVG 1.1//EN" "http://www.w3.org/Graphics/SVG/1.1/DTD/svg11.dtd"><svg t="1589182458065" class="icon" viewBox="0 0 1024 1024" version="1.1" xmlns="http://www.w3.org/2000/svg" p-id="2146" xmlns:xlink="http://www.w3.org/1999/xlink" width="64" height="64"><defs><style type="text/css"></style></defs><path d="M814.592 86.6304H207.6672c-63.5904 0-115.6096 52.0192-115.6096 115.6096v607.0272c0 63.5904 52.0192 115.6096 115.6096 115.6096h607.0272c63.5904 0 115.6096-52.0192 115.6096-115.6096V202.24c-0.1024-63.5904-52.1216-115.6096-115.712-115.6096z m-14.7456 419.1232c0 27.4432-22.2208 49.5616-49.5616 49.5616H271.9744c-27.4432 0-49.5616-22.2208-49.5616-49.5616 0-27.4432 22.2208-49.5616 49.5616-49.5616h478.3104c27.4432-0.1024 49.5616 22.1184 49.5616 49.5616z" p-id="2147" fill="#4caf50"></path></svg>