<?xml version="1.0" standalone="no"?><!DOCTYPE svg PUBLIC "-//W3C//DTD SVG 1.1//EN" "http://www.w3.org/Graphics/SVG/1.1/DTD/svg11.dtd"><svg t="1565856361651" class="icon" viewBox="0 0 1024 1024" version="1.1" xmlns="http://www.w3.org/2000/svg" p-id="2561" xmlns:xlink="http://www.w3.org/1999/xlink" width="200" height="200"><defs><style type="text/css"></style></defs><path d="M951.466667 914.773333H109.226667V72.533333C109.226667 52.394667 92.672 35.84 72.533333 35.84S35.84 52.394667 35.84 72.533333v878.933334c0 20.138667 16.554667 36.693333 36.693333 36.693333h878.933334c20.138667 0 36.693333-16.554667 36.693333-36.693333s-16.554667-36.693333-36.693333-36.693334z" p-id="2562"></path><path d="M914.773333 878.08c20.138667 0 36.693333-16.554667 36.693334-36.693333V400.725333c0-20.138667-16.554667-36.693333-36.693334-36.693333s-36.693333 16.554667-36.693333 36.693333V841.386667c0 20.138667 16.384 36.693333 36.693333 36.693333z m-220.330666 0c20.138667 0 36.693333-16.554667 36.693333-36.693333V548.693333c0-20.138667-16.554667-36.693333-36.693333-36.693333s-36.693333 16.554667-36.693334 36.693333v292.522667c0 20.309333 16.554667 36.864 36.693334 36.864z m-220.330667 0c20.138667 0 36.693333-16.554667 36.693333-36.693333V180.394667c0-20.138667-16.554667-36.693333-36.693333-36.693334s-36.693333 16.554667-36.693333 36.693334v660.821333c0 20.309333 16.554667 36.864 36.693333 36.864z m-220.330667 0c20.138667 0 36.693333-16.554667 36.693334-36.693333V474.112c0-20.138667-16.554667-36.693333-36.693334-36.693333s-36.693333 16.554667-36.693333 36.693333v367.104c0 20.309333 16.554667 36.864 36.693333 36.864z" p-id="2563"></path></svg>