<?xml version="1.0" standalone="no"?><!DOCTYPE svg PUBLIC "-//W3C//DTD SVG 1.1//EN" "http://www.w3.org/Graphics/SVG/1.1/DTD/svg11.dtd"><svg t="1556156025437" class="icon" style="" viewBox="0 0 1024 1024" version="1.1" xmlns="http://www.w3.org/2000/svg" p-id="15180" xmlns:xlink="http://www.w3.org/1999/xlink" width="200" height="200"><defs><style type="text/css"></style></defs><path d="M1024 0L575.859712 768.28672c-28.378112 48.64-98.741248 48.347136-126.681088-0.584704L219.440128 365.71136h73.141248l202.89536 202.897408c8.777728 8.776704 23.113728 7.752704 30.500864-2.121728L950.857728 0H1024zM913.248256 334.999552c23.991296 54.198272 37.595136 114.028544 37.595136 177.004544 0 241.954816-196.824064 438.853632-438.85056 438.853632-241.952768 0-438.85056-196.898816-438.85056-438.853632 0-242.028544 196.897792-438.854656 438.85056-438.854656 88.208384 0 170.201088 26.404864 239.100928 71.314432l44.10368-58.88C714.083328 31.604736 616.8064 0.008192 511.992832 0.008192 229.225472 0.007168 0 229.234688 0 512.003072 0 794.771456 229.226496 1024 511.992832 1024s511.992832-229.228544 511.992832-511.995904c0-91.867136-24.503296-177.809408-66.779136-252.341248l-43.958272 75.33568z" p-id="15181"></path></svg>