<?xml version="1.0" standalone="no"?><!DOCTYPE svg PUBLIC "-//W3C//DTD SVG 1.1//EN" "http://www.w3.org/Graphics/SVG/1.1/DTD/svg11.dtd"><svg t="1587956120529" class="icon" viewBox="0 0 1024 1024" version="1.1" xmlns="http://www.w3.org/2000/svg" p-id="7418" xmlns:xlink="http://www.w3.org/1999/xlink" width="200" height="200"><defs><style type="text/css"></style></defs><path d="M393.8 371.9h-28c-8.9 0-16 6.9-16 15.5v10.3c0 8.6 7.2 15.5 16 15.5h28c8.9 0 16-6.9 16-15.5v-10.3c0-8.6-7.2-15.5-16-15.5z m94.6 62.3h-28c-8.9 0-16 6.9-16 15.5V460c0 8.6 7.2 15.5 16 15.5h28c8.9 0 16-6.9 16-15.5v-10.3c0-8.6-7.2-15.5-16-15.5z m0 62.4h-28c-8.9 0-16 6.9-16 15.5v10.3c0 8.6 7.2 15.5 16 15.5h28c8.9 0 16-6.9 16-15.5v-10.3c0-8.6-7.2-15.5-16-15.5z m0 63.6h-28c-8.9 0-16 6.9-16 15.5V586c0 8.6 7.2 15.5 16 15.5h28c8.9 0 16-6.9 16-15.5v-10.3c0-8.6-7.2-15.5-16-15.5z m0 60.5h-28c-8.9 0-16 6.9-16 15.5v10.3c0 8.6 7.2 15.5 16 15.5h28c8.9 0 16-6.9 16-15.5v-10.3c0-8.7-7.2-15.5-16-15.5z m-94.6 0h-28c-8.9 0-16 6.9-16 15.5v10.3c0 8.6 7.2 15.5 16 15.5h28c8.9 0 16-6.9 16-15.5v-10.3c0-8.7-7.2-15.5-16-15.5z m0-186.5h-28c-8.9 0-16 6.9-16 15.5V460c0 8.6 7.2 15.5 16 15.5h28c8.9 0 16-6.9 16-15.5v-10.3c0-8.6-7.2-15.5-16-15.5z m0 126h-28c-8.9 0-16 6.9-16 15.5V586c0 8.6 7.2 15.5 16 15.5h28c8.9 0 16-6.9 16-15.5v-10.3c0-8.6-7.2-15.5-16-15.5z m0-63.6h-28c-8.9 0-16 6.9-16 15.5v10.3c0 8.6 7.2 15.5 16 15.5h28c8.9 0 16-6.9 16-15.5v-10.3c0-8.6-7.2-15.5-16-15.5z m275-124.7h-28c-8.9 0-16 6.9-16 15.5v10.3c0 8.6 7.2 15.5 16 15.5h28c8.9 0 16-6.9 16-15.5v-10.3c0-8.6-7.2-15.5-16-15.5z m0 62.3h-28c-8.9 0-16 6.9-16 15.5V460c0 8.6 7.2 15.5 16 15.5h28c8.9 0 16-6.9 16-15.5v-10.3c0-8.6-7.2-15.5-16-15.5z m0 62.4h-28c-8.9 0-16 6.9-16 15.5v10.3c0 8.6 7.2 15.5 16 15.5h28c8.9 0 16-6.9 16-15.5v-10.3c0-8.6-7.2-15.5-16-15.5zM512 62.2c-247.9 0-448.9 201-448.9 448.9S264.1 960 512 960s448.9-201 448.9-448.9S759.9 62.2 512 62.2z m268 700.5c0 6.8-4.7 12.3-10.6 12.3H261.6c-5.9 0-10.6-5.6-10.6-12.3v-24.6c0-6.8 4.7-12.3 10.6-12.3h38.7v-399c0-4.3 2.8-8.2 6.9-9.7l230.6-82.7c7.1-2.5 14.4 2.5 14.4 9.7v481.7h18.5V304c0-7.8 8.6-12.9 15.8-9.1L737.6 374c3.4 1.8 5.6 5.3 5.5 9.1v342.6h26.3c5.9 0 10.6 5.6 10.6 12.3v24.7z m-111.2-142h-28c-8.9 0-16 6.9-16 15.5v10.3c0 8.6 7.2 15.5 16 15.5h28c8.9 0 16-6.9 16-15.5v-10.3c0-8.7-7.2-15.5-16-15.5zM488.4 311.1h-28c-8.9 0-16 6.9-16 15.5v10.3c0 8.6 7.2 15.5 16 15.5h28c8.9 0 16-6.9 16-15.5v-10.3c0-8.6-7.2-15.5-16-15.5z m180.4 249.1h-28c-8.9 0-16 6.9-16 15.5V586c0 8.6 7.2 15.5 16 15.5h28c8.9 0 16-6.9 16-15.5v-10.3c0-8.6-7.2-15.5-16-15.5zM488.4 371.9h-28c-8.9 0-16 6.9-16 15.5v10.3c0 8.6 7.2 15.5 16 15.5h28c8.9 0 16-6.9 16-15.5v-10.3c0-8.6-7.2-15.5-16-15.5z" fill="#6EC9E1" p-id="7419"></path></svg>