<?xml version="1.0" standalone="no"?><!DOCTYPE svg PUBLIC "-//W3C//DTD SVG 1.1//EN" "http://www.w3.org/Graphics/SVG/1.1/DTD/svg11.dtd"><svg t="1565664785147" class="icon" viewBox="0 0 1024 1024" version="1.1" xmlns="http://www.w3.org/2000/svg" p-id="3983" xmlns:xlink="http://www.w3.org/1999/xlink" width="200" height="200"><defs><style type="text/css"></style></defs><path d="M909.312 0H114.688C51.2 0 0 51.2 0 114.688v796.672c0 61.44 51.2 112.64 114.688 112.64H512c30.72 0 57.344-24.576 57.344-57.344 0-30.72-24.576-57.344-57.344-57.344H169.984c-30.72 0-57.344-24.576-57.344-57.344V169.984c0-30.72 24.576-57.344 57.344-57.344h681.984c30.72 0 57.344 24.576 57.344 57.344V512c0 30.72 24.576 57.344 57.344 57.344S1024 542.72 1024 512V114.688C1024 51.2 972.8 0 909.312 0z m-147.456 645.12c20.48-38.912 34.816-83.968 34.816-133.12 0-157.696-126.976-284.672-284.672-284.672S227.328 354.304 227.328 512 354.304 796.672 512 796.672c67.584 0 129.024-24.576 178.176-63.488l200.704 159.744c22.528 20.48 59.392 18.432 79.872-4.096s18.432-59.392-4.096-79.872l-204.8-163.84zM512 681.984c-94.208 0-169.984-75.776-169.984-169.984 0-94.208 75.776-169.984 169.984-169.984 94.208 0 169.984 75.776 169.984 169.984 0 94.208-75.776 169.984-169.984 169.984z" p-id="3984"></path></svg>