<?xml version="1.0" standalone="no"?><!DOCTYPE svg PUBLIC "-//W3C//DTD SVG 1.1//EN" "http://www.w3.org/Graphics/SVG/1.1/DTD/svg11.dtd"><svg t="1556155676244" class="icon" style="" viewBox="0 0 1024 1024" version="1.1" xmlns="http://www.w3.org/2000/svg" p-id="5452" xmlns:xlink="http://www.w3.org/1999/xlink" width="200" height="200"><defs><style type="text/css"></style></defs><path d="M864 832h-32V352c0-19.2-12.8-32-32-32h-160V160c0-19.2-12.8-32-32-32H224c-19.2 0-32 12.8-32 32v672H160c-19.2 0-32 12.8-32 32s12.8 32 32 32h704c19.2 0 32-12.8 32-32s-12.8-32-32-32z m-96-448v448h-128V384h128zM256 192h320v640H256V192z" p-id="5453"></path><path d="M352 320h128c19.2 0 32-12.8 32-32s-12.8-32-32-32h-128c-19.2 0-32 12.8-32 32s12.8 32 32 32zM704 544c19.2 0 32-12.8 32-32v-32c0-19.2-12.8-32-32-32s-32 12.8-32 32v32c0 19.2 12.8 32 32 32zM704 704c19.2 0 32-12.8 32-32v-32c0-19.2-12.8-32-32-32s-32 12.8-32 32v32c0 19.2 12.8 32 32 32zM480 384h-128c-19.2 0-32 12.8-32 32s12.8 32 32 32h128c19.2 0 32-12.8 32-32s-12.8-32-32-32zM480 512h-128c-19.2 0-32 12.8-32 32s12.8 32 32 32h128c19.2 0 32-12.8 32-32s-12.8-32-32-32zM480 640h-128c-19.2 0-32 12.8-32 32s12.8 32 32 32h128c19.2 0 32-12.8 32-32s-12.8-32-32-32z" p-id="5454"></path></svg>