<?xml version="1.0" standalone="no"?><!DOCTYPE svg PUBLIC "-//W3C//DTD SVG 1.1//EN" "http://www.w3.org/Graphics/SVG/1.1/DTD/svg11.dtd"><svg t="1587432010234" class="icon" viewBox="0 0 1024 1024" version="1.1" xmlns="http://www.w3.org/2000/svg" p-id="1862" xmlns:xlink="http://www.w3.org/1999/xlink" width="200" height="200"><defs><style type="text/css"></style></defs><path d="M977.152 494.52c-6.324-45.531-85.36-65.772-117.28-71.744-20.417-3.863-85.402-5.62-190.607-4.653-6.938-12.12-24.764-43.117-47.158-82.106 11.59-10.407 44.435-40.307 55.676-54.445 20.549-25.86-7.113-38.11-26.26-38.066-19.493 0.044-74.204 0-82.899 0-41.01-70.734-82.063-140.898-97.652-165.354-35.215-55.454-103.756-29.198-100.728 0 2.722 26.3 71.441 291.323 85.228 344.36-2.942 0.089-5.708 0.177-8.65 0.265-80.573 2.37-148.544 11.592-203.649 22.657-16.862-18.09-72.626-78.024-105.644-115.388-40.22-45.399-61.91-10.187-59.453 5.005 6.982 43.688 34.688 137.341 37.017 145.026-15.237 3.819-24.81 9.176-24.898 15.148-0.086 0-0.13 0.044-0.174 0.088 0.044 0 0.088 0.088 0.174 0.088 0.088 5.97 9.661 11.328 24.898 15.104-2.284 7.639-30.035 101.338-37.017 144.98-2.458 15.192 19.232 50.494 59.453 5.051 33.02-37.365 88.783-97.342 105.644-115.432 55.105 11.152 123.076 20.372 203.648 22.745 2.943 0.086 5.709 0.174 8.65 0.262-13.787 52.952-82.505 318.062-85.227 344.319-3.028 29.242 65.513 55.41 100.728 0 15.588-24.411 56.643-94.576 97.652-165.354h82.9c19.146 0.044 46.808-12.206 26.259-38.11-11.24-14.138-44.086-43.996-55.676-54.445 22.394-38.902 40.22-69.901 47.158-82.018 105.205 0.965 170.19-0.877 190.606-4.653 31.922-5.976 112.538-30.915 117.281-73.33" p-id="1863"></path></svg>