<?xml version="1.0" standalone="no"?><!DOCTYPE svg PUBLIC "-//W3C//DTD SVG 1.1//EN" "http://www.w3.org/Graphics/SVG/1.1/DTD/svg11.dtd"><svg t="1589424291430" class="icon" viewBox="0 0 1024 1024" version="1.1" xmlns="http://www.w3.org/2000/svg" p-id="3176" xmlns:xlink="http://www.w3.org/1999/xlink" width="64" height="64"><defs><style type="text/css"></style></defs><path d="M681.454 672.204c-11.026 0-19.964-8.938-19.964-19.964v-66.8c0-11.026 8.938-19.963 19.964-19.963s19.964 8.938 19.964 19.963v66.801c0 11.025-8.938 19.963-19.964 19.963z" p-id="3177"></path><path d="M681.455 713.289m-18.667 0a18.667 18.667 0 1 0 37.334 0 18.667 18.667 0 1 0-37.334 0Z" p-id="3178"></path><path d="M521.814 442.038H244.518c-11.026 0-19.963-8.938-19.963-19.964 0-11.026 8.938-19.963 19.963-19.963h277.296c11.026 0 19.964 8.938 19.964 19.963-0.001 11.026-8.939 19.964-19.964 19.964zM424.963 616.134H244.518c-11.026 0-19.963-8.938-19.963-19.963 0-11.026 8.938-19.964 19.963-19.964h180.445c11.026 0 19.964 8.938 19.964 19.964 0 11.025-8.938 19.963-19.964 19.963zM905.902 806.019H457.007a19.963 19.963 0 0 1-16.902-30.587l224.447-362.06a19.962 19.962 0 0 1 33.804 0l224.448 362.06a19.961 19.961 0 0 1-16.902 30.587z m-412.766-39.927h376.638l-188.32-304.585-188.318 304.585z" p-id="3179"></path><path d="M363.784 806.154H164.068c-36.741 0-66.632-29.891-66.632-66.632V284.478c0-36.741 29.891-66.632 66.632-66.632h695.863c36.741 0 66.632 29.891 66.632 66.632v317.158c0 11.026-8.938 19.964-19.964 19.964-11.026 0-19.964-8.938-19.964-19.964V284.478c0-14.725-11.98-26.705-26.705-26.705H164.068c-14.725 0-26.705 11.98-26.705 26.705v455.045c0 14.725 11.98 26.705 26.705 26.705h199.716c11.026 0 19.964 8.938 19.964 19.963 0 11.026-8.938 19.963-19.964 19.963z" p-id="3180"></path></svg>