<?xml version="1.0" standalone="no"?><!DOCTYPE svg PUBLIC "-//W3C//DTD SVG 1.1//EN" "http://www.w3.org/Graphics/SVG/1.1/DTD/svg11.dtd"><svg t="1587782494211" class="icon" viewBox="0 0 1024 1024" version="1.1" xmlns="http://www.w3.org/2000/svg" p-id="1760" xmlns:xlink="http://www.w3.org/1999/xlink" width="200" height="200"><defs><style type="text/css"></style></defs><path d="M507.786971 0C231.350857 0 7.314286 229.127314 7.314286 511.853714c0 282.711771 224.036571 511.853714 500.472685 511.853715 276.436114 0 500.472686-229.141943 500.472686-511.853715C1008.259657 229.127314 784.237714 0 507.786971 0z" fill="#5E7FFF" p-id="1761"></path><path d="M668.672 500.8384a20.114286 20.114286 0 0 1-28.964571-27.7504l34.991542-36.615314a79.0528 79.0528 0 0 0-7.636114-107.607772c-30.383543-31.583086-75.234743-34.391771-100.571428-7.840914l-97.762743 102.575543a79.0528 79.0528 0 0 0 7.650743 107.607771 20.114286 20.114286 0 1 1-28.5696 28.379429A119.076571 119.076571 0 0 1 440.173714 396.434286l97.748115-101.975772c42.042514-43.856457 113.444571-40.228571 158.910171 8.045715a119.076571 119.076571 0 0 1 7.021714 161.309257l-35.181714 37.010285z" fill="#FFFFFF" p-id="1762"></path><path d="M333.970286 507.274971a20.114286 20.114286 0 0 1 28.964571 27.765029l-35.006171 36.600686a79.0528 79.0528 0 0 0 7.650743 107.607771c30.368914 31.597714 75.220114 34.4064 100.571428 7.855543l97.748114-102.590171a79.0528 79.0528 0 0 0-7.636114-107.607772 20.114286 20.114286 0 1 1 28.554972-28.3648 119.076571 119.076571 0 0 1 7.650742 163.1232l-97.762742 101.9904c-42.042514 43.841829-113.444571 40.228571-158.895543-8.045714a119.076571 119.076571 0 0 1-7.050972-161.323886l35.210972-37.010286z" fill="#FFFFFF" p-id="1763"></path></svg>