<?xml version="1.0" standalone="no"?><!DOCTYPE svg PUBLIC "-//W3C//DTD SVG 1.1//EN" "http://www.w3.org/Graphics/SVG/1.1/DTD/svg11.dtd"><svg t="1562753167446" class="icon" viewBox="0 0 1024 1024" version="1.1" xmlns="http://www.w3.org/2000/svg" p-id="5447" xmlns:xlink="http://www.w3.org/1999/xlink" width="200" height="200"><defs><style type="text/css"></style></defs><path d="M897.45 70.981h-763.728c-34.992 0-63.643 28.654-63.643 63.642v763.733c0 34.989 28.652 63.64 63.642 63.64h763.728c34.994 0 63.645-28.652 63.645-63.64v-763.733c0-34.988-28.652-63.642-63.644-63.642zM897.45 898.359h-763.728v-763.733h763.728v763.733zM388.3 261.916h381.868v63.645h-381.868v-63.645zM261.009 261.916h63.645v63.645h-63.645v-63.645zM388.3 389.204h381.868v63.645h-381.868v-63.645zM261.009 389.204h63.645v63.645h-63.645v-63.645zM388.3 580.137h381.868v63.645h-381.868v-63.645zM261.009 580.137h63.645v63.645h-63.645v-63.645zM388.3 707.422h381.868v63.65h-381.868v-63.65zM261.009 707.422h63.645v63.65h-63.645v-63.65z" p-id="5448" fill="#e6e6e6"></path></svg>