<?xml version="1.0" standalone="no"?><!DOCTYPE svg PUBLIC "-//W3C//DTD SVG 1.1//EN" "http://www.w3.org/Graphics/SVG/1.1/DTD/svg11.dtd"><svg t="1590388698420" class="icon" viewBox="0 0 1024 1024" version="1.1" xmlns="http://www.w3.org/2000/svg" p-id="2682" xmlns:xlink="http://www.w3.org/1999/xlink" width="64" height="64"><defs><style type="text/css"></style></defs><path d="M767.576 341.044 256.01 341.044c-23.563 0-42.631 19.067-42.631 42.631 0 23.563 19.068 42.63 42.631 42.63l511.566 0c23.565 0 42.63-19.067 42.63-42.63C810.206 360.111 791.142 341.044 767.576 341.044z" p-id="2683"></path><path d="M980.728 676.473 980.728 85.26c0-47.084-38.171-85.26-85.26-85.26l-767.35 0C81.035 0 42.857 38.176 42.857 85.26l0 852.61c0 47.088 38.178 85.263 85.261 85.263l502.874 0c13.555 2.77 28.191-1.097 38.711-11.616l298.955-298.953C978.501 702.717 982.522 689.267 980.728 676.473zM682.314 878.339 682.314 724.718l153.623 0L682.314 878.339zM639.684 639.456c-23.561 0-42.63 19.068-42.63 42.633 0 0.076 0.006 0.151 0.008 0.229-0.002 0.077-0.008 0.153-0.008 0.229l0 255.325L170.748 937.872c-23.561 0-42.63-19.066-42.63-42.63l0-767.35c0-23.563 19.07-42.631 42.63-42.631l682.087 0c23.565 0 42.632 19.068 42.632 42.631l0 511.565L639.684 639.457z" p-id="2684"></path><path d="M767.576 170.522 256.01 170.522c-23.563 0-42.631 19.067-42.631 42.631 0 23.563 19.068 42.631 42.631 42.631l511.566 0c23.565 0 42.63-19.068 42.63-42.631C810.206 189.589 791.142 170.522 767.576 170.522z" p-id="2685"></path></svg>