<?xml version="1.0" standalone="no"?><!DOCTYPE svg PUBLIC "-//W3C//DTD SVG 1.1//EN" "http://www.w3.org/Graphics/SVG/1.1/DTD/svg11.dtd"><svg t="1562752213831" class="icon" viewBox="0 0 1024 1024" version="1.1" xmlns="http://www.w3.org/2000/svg" p-id="3331" xmlns:xlink="http://www.w3.org/1999/xlink" width="200" height="200"><defs><style type="text/css"></style></defs><path d="M204.6976 414.72a32.768 32.768 0 1 0 32.768-32.768 32.768 32.768 0 0 0-32.768 32.768z m0 0" p-id="3332"></path><path d="M991.1168 225.28a22.144 22.144 0 1 0-43.6864 7.2064A53.2992 53.2992 0 0 1 903.68 293.248a238.976 238.976 0 0 0-152.9216-52.2112H451.9808l-103.5392-73.6256a21.8496 21.8496 0 0 0-34.56 17.92v43.6864c-117.9648 7.68-198.144 77.3248-214.9632 186.9952-36.6976 4.8-69.0304 21.6192-69.0304 53.2992v87.3856c0 36.6976 51.9936 77.5552 87.3856 77.5552h14.4256A282.4576 282.4576 0 0 0 344.4992 759.04l34.944 64a44.8 44.8 0 0 0 43.6864 38.4 46.528 46.528 0 0 0 43.6864-40.8448l34.56-55.2704h349.504L903.68 823.6544A45.0048 45.0048 0 0 0 947.4304 860.16a41.5104 41.5104 0 0 0 43.6864-41.28v-327.68A262.144 262.144 0 0 0 938.24 327.104 95.9104 95.9104 0 0 0 991.1168 225.28z m-43.6864 588.8a21.8496 21.8496 0 0 0-5.9008-14.8608l-65.536-70.5536a21.8496 21.8496 0 0 0-15.9488-6.9888H488.6784a21.8496 21.8496 0 0 0-18.56 10.24l-43.6864 69.9008a21.8496 21.8496 0 0 0-3.2768 11.52 21.76 21.76 0 0 0-2.56-8.2944l-43.7632-78.8224a21.8368 21.8368 0 0 0-19.2-10.4832A240.3072 240.3072 0 0 1 162.56 600.384a21.8368 21.8368 0 0 0-18.56-10.4832H117.312a65.536 65.536 0 0 1-43.6864-33.2032v-86.2848A73.8816 73.8816 0 0 1 118.6176 459.52a21.8368 21.8368 0 0 0 21.8496-20.096c12.4544-150.5152 140.6848-166.6816 195.3024-166.6816A21.8496 21.8496 0 0 0 357.6064 250.88v-23.168l74.7136 53.0816a21.824 21.824 0 0 0 12.672 3.9296h305.8304c117.5296 0 196.608 83.008 196.608 206.4384z m0 0" p-id="3333"></path></svg>