<?xml version="1.0" standalone="no"?><!DOCTYPE svg PUBLIC "-//W3C//DTD SVG 1.1//EN" "http://www.w3.org/Graphics/SVG/1.1/DTD/svg11.dtd"><svg t="1591064127835" class="icon" viewBox="0 0 1024 1024" version="1.1" xmlns="http://www.w3.org/2000/svg" p-id="10450" xmlns:xlink="http://www.w3.org/1999/xlink" width="64" height="64"><defs><style type="text/css"></style></defs><path d="M703.992 383.76c-70.696 0-128 57.304-128 128s57.304 128 128 128 128-57.304 128-128c0.008-70.696-57.304-128-128-128z m-288 63.992H223.984a32 32 0 1 0 0 64H416a32 32 0 1 0-0.008-64zM127.976 831.76V191.752a64 64 0 0 1 64-64h512.008a64 64 0 0 1 64 64V319.76h64V191.752c0-70.688-57.304-128-128-128h-512c-70.696 0-128 57.312-128 128v640.008c0 70.696 57.304 128 128 128h192.008v-64H191.984a64.008 64.008 0 0 1-64.008-64z m160.016-192.008h-64.008a32 32 0 1 0 0 64h64.008a32 32 0 0 0 0-64z m287.992-352a32 32 0 0 0-32-32h-320a32 32 0 1 0 0 64h320.008a32 32 0 0 0 31.992-32zM767.992 703.76h-128c-106.04 0-192 85.96-192 192v64H960v-64c0-106.04-85.96-192-192.008-192z" p-id="10451"></path></svg>