<?xml version="1.0" standalone="no"?><!DOCTYPE svg PUBLIC "-//W3C//DTD SVG 1.1//EN" "http://www.w3.org/Graphics/SVG/1.1/DTD/svg11.dtd"><svg t="1587433705628" class="icon" viewBox="0 0 1024 1024" version="1.1" xmlns="http://www.w3.org/2000/svg" p-id="11257" xmlns:xlink="http://www.w3.org/1999/xlink" width="200" height="200"><defs><style type="text/css"></style></defs><path d="M492.352 456.768a378.88 378.88 0 0 1-48-18.56L124.8 278.4a155.456 155.456 0 0 1-35.648-26.496 32 32 0 0 1 2.944-48.512c10.56-8 20.096-14.4 28.544-19.2L444.352 20.352c11.072-4.736 26.752-10.88 46.912-18.368a32 32 0 0 1 21.056-0.384c23.424 7.68 40.384 13.952 50.88 18.816l319.488 155.648c15.36 6.528 27.904 13.376 37.44 20.48v0.064a32 32 0 0 1 0.448 50.88c-15.808 12.224-28.416 21.12-37.888 26.816L559.36 438.144a403.2 403.2 0 0 1-48.064 18.624 32 32 0 0 1-18.88 0zM436.096 1024a96.448 96.448 0 0 1-32.768-7.936l-282.624-147.712c-32.768-16.448-61.44-53.248-61.44-81.92V381.056A175.808 175.808 0 0 1 60.16 361.6a32 32 0 0 1 30.336-29.184 234.88 234.88 0 0 1 17.92-0.32c9.984 0.704 19.712 3.392 28.672 7.936l286.784 147.456c32.832 16.32 61.44 53.248 61.44 81.92V992a32 32 0 0 1-32 32h-17.216z m151.616 0h-17.152a32 32 0 0 1-32-32V573.44c0-32.768 24.64-65.536 61.44-81.92l286.72-151.552a75.968 75.968 0 0 1 28.672-7.936c4.096-0.192 9.92-0.256 17.28-0.256a32 32 0 0 1 32.064 32 595.2 595.2 0 0 1-0.192 17.344v421.184a32 32 0 0 1-10.624 23.872c-22.912 20.48-39.808 33.216-50.816 38.08L633.984 1012.48c-8.768 5.056-27.968 11.456-46.272 11.456z" p-id="11258"></path></svg>