<?xml version="1.0" standalone="no"?><!DOCTYPE svg PUBLIC "-//W3C//DTD SVG 1.1//EN" "http://www.w3.org/Graphics/SVG/1.1/DTD/svg11.dtd"><svg t="1562752375662" class="icon" viewBox="0 0 1024 1024" version="1.1" xmlns="http://www.w3.org/2000/svg" p-id="3606" xmlns:xlink="http://www.w3.org/1999/xlink" width="200" height="200"><defs><style type="text/css"></style></defs><path d="M658.906 346.707c3.548 5.243 7.333 7.107 14.373 7.107 7.083 0 10.87-1.884 14.43-7.191 2.178-2.193 7.051-7.826 7.051-14.289 0-7.083-1.884-10.871-7.191-14.43-4.877-4.838-11.541-7.258-17.855-6.486-4.755 0.585-8.613 2.942-10.879 6.642-2.186 2.202-7.035 7.818-7.035 14.274-0.001 7.041 1.863 10.825 7.106 14.373zM870.312 787.366L641.854 466.843v-49.176c0-1.151 1.264-2.414 2.414-2.414 12.446 0 21.48-9.032 21.48-21.477 0-12.446-9.034-21.48-21.48-21.48-24.596 0-45.375 20.777-45.375 45.371v47.789c0 8.622 1.044 18.479 8.769 26.245L836.12 812.229v56c0 1.292 0 1.292-1.414 2.703-1.414 1.414-1.414 1.414-2.707 1.414H193.705c-1.149 0-2.41-1.262-2.411-2.44l-1.707-56.29v-1.393l228.368-327.216c6.816-3.519 10.566-10.45 10.566-19.551v-54.614c0-24.596-20.779-45.375-45.375-45.375h-3.415c-1.151 0-2.414-1.263-2.414-2.414v-27.304c0-12.447-9.032-21.481-21.476-21.481-12.447 0-21.481 9.034-21.481 21.481v27.304c0 24.596 20.777 45.375 45.371 45.375h3.415c1.151 0 2.414 1.263 2.414 2.414V454.9L153.633 789.15l-0.073 0.123c-0.413 0.826-0.852 1.678-1.303 2.555-3.269 6.351-7.338 14.254-7.337 23.526l1.707 52.874c0 24.594 20.777 45.371 45.371 45.371h640c14.277 0 25.446-4.714 33.137-13.945 8.862-8.866 13.945-20.943 13.945-33.133v-52.906c0-8.622-1.044-18.478-8.768-26.249zM483.842 290.667c24.594 0 45.371-20.777 45.371-45.371 0-24.596-20.777-45.375-45.371-45.375-24.596 0-45.375 20.779-45.375 45.375l0.009 0.132c3.608 27.058 21.84 45.239 45.366 45.239z m-14.363-45.372c0-7.733 7.897-14.36 14.363-14.36 7.918 0 14.359 6.442 14.359 14.36 0 10.587-7.417 14.359-14.359 14.359-7.92 0-14.363-6.441-14.363-14.359zM587.947 203.627c31.185 0 55.613-24.429 55.613-55.614S619.132 92.4 587.947 92.4s-55.613 24.428-55.611 55.672c1.741 29.595 27.727 55.555 55.611 55.555z m-24.601-57.32c0-11.072 11.353-24.597 24.602-24.597 13.104 0 24.598 11.494 24.598 24.597 0 13.106-11.494 24.602-24.598 24.602-13.106 0-24.602-11.496-24.602-24.602z" fill="#ffffff" p-id="3607"></path></svg>