<?xml version="1.0" standalone="no"?><!DOCTYPE svg PUBLIC "-//W3C//DTD SVG 1.1//EN" "http://www.w3.org/Graphics/SVG/1.1/DTD/svg11.dtd"><svg t="1565856556780" class="icon" viewBox="0 0 1382 1024" version="1.1" xmlns="http://www.w3.org/2000/svg" p-id="4577" xmlns:xlink="http://www.w3.org/1999/xlink" width="269.921875" height="200"><defs><style type="text/css"></style></defs><path d="M907.185172 604.415107c-47.918047-0.174748-91.205899 28.559243-109.661624 72.775685-18.455725 44.218994-8.430015 95.200877 25.38571 129.14288 33.822103 33.940727 84.768271 44.145012 129.053592 25.84873 44.280219-18.296283 73.169826-61.484644 73.169826-109.396313 0-65.211759-52.740847-118.141385-117.947504-118.370982zM535.649706 237.99709c48.216522 0.373732 91.884484-28.404903 110.543019-72.864972 18.664913-44.458794 8.630274-95.785072-25.404843-129.94009-34.036393-34.149915-85.326956-44.364405-129.850802-25.853832-44.52002 18.509297-73.452995 62.072666-73.248909 110.287913 0.303577 65.093134 52.874778 117.84291 117.961535 118.370981z m393.817798 294.429338a185.784315 185.784315 0 0 1 72.914718 25.087234v-5.116173c-0.389038-185.262621-109.477947-353.045301-278.645859-428.57997a185.570025 185.570025 0 0 1-16.257977 73.377738c129.372476 63.183657 214.344833 191.519123 221.989118 335.296223v-0.065052z m-645.521794 189.008868c-0.014031-56.397808-39.824773-104.952347-95.126896-116.029098-55.300847-11.075476-110.731799 18.405979-132.470752 70.449108-21.733852 52.041854-3.732217 112.192287 43.018714 143.736283 46.757309 31.550374 109.272586 25.725002 149.392008-13.910991a117.946228 117.946228 0 0 0 35.186926-84.245302zM141.903338 532.426428c7.294788-143.462043 91.425291-271.823019 220.059233-335.764345a182.243428 182.243428 0 0 1-16.326856-72.909617C176.476731 199.317748 67.418435 367.129766 67.070214 552.397489a19.353702 19.353702 0 0 0 4.190135 5.580468 179.256124 179.256124 0 0 1 70.642989-25.551529z m393.746368 417.967513a391.072845 391.072845 0 0 1-243.810982-85.390732 188.45146 188.45146 0 0 1-66.87123 38.544135c176.611938 158.968729 444.753762 158.968729 621.370802 0a188.45146 188.45146 0 0 1-66.871231-38.544135 391.070294 391.070294 0 0 1-243.817359 84.518266v0.872466z m0 0" p-id="4578" fill="#ffffff"></path></svg>