<?xml version="1.0" standalone="no"?><!DOCTYPE svg PUBLIC "-//W3C//DTD SVG 1.1//EN" "http://www.w3.org/Graphics/SVG/1.1/DTD/svg11.dtd"><svg t="1564550345550" class="icon" viewBox="0 0 1056 1024" version="1.1" xmlns="http://www.w3.org/2000/svg" p-id="3855" xmlns:xlink="http://www.w3.org/1999/xlink" width="206.25" height="200"><defs><style type="text/css"></style></defs><path d="M715.04 339.936h-92.32a32 32 0 1 1 0-64h166.912a32 32 0 0 1 32 32v161.088a32 32 0 1 1-64 0v-81.28l-203.04 180.16a32 32 0 0 1-38.24 3.2l-114.624-71.872-109.12 71.52a32 32 0 0 1-35.104-53.504l126.336-82.784a32 32 0 0 1 34.528-0.32l111.68 70.016 185.024-164.224zM179.744 86.816h705.152a74.656 74.656 0 0 1 74.656 74.656v701.152a74.656 74.656 0 0 1-74.656 74.656H179.744a74.656 74.656 0 0 1-74.688-74.656V161.472a74.656 74.656 0 0 1 74.688-74.688z m0 64a10.656 10.656 0 0 0-10.688 10.656v701.152c0 5.888 4.8 10.656 10.688 10.656h705.152a10.652 10.652 0 0 0 10.656-10.656V161.472a10.656 10.656 0 0 0-10.656-10.688H179.744zM352 744.832a32 32 0 1 1 0-64h363.104a32 32 0 1 1 0 64H352z" fill="#ffffff" p-id="3856"></path></svg>