<?xml version="1.0" standalone="no"?><!DOCTYPE svg PUBLIC "-//W3C//DTD SVG 1.1//EN" "http://www.w3.org/Graphics/SVG/1.1/DTD/svg11.dtd"><svg t="1587717409858" class="icon" viewBox="0 0 1024 1024" version="1.1" xmlns="http://www.w3.org/2000/svg" p-id="1900" xmlns:xlink="http://www.w3.org/1999/xlink" width="200" height="200"><defs><style type="text/css"></style></defs><path d="M960.428 531.19c-6.39 38.4-19.21 83.19-38.42 121.59-12.8 19.21-25.6 25.6-44.81 19.21-19.211-12.8-25.621-25.6-19.211-44.81 19.21-38.4 32.01-76.78 38.42-115.18 25.6-102.4 19.21-198.39 12.8-255.98L512.223 70.451 115.26 256.021c-6.41 57.59-12.82 147.19 12.8 255.979 44.81 211.17 179.282 358.359 384.164 447.959 64.041-25.6 115.262-57.59 166.482-95.99 12.8-12.8 32.01-6.41 44.83 6.39 12.8 12.8 6.39 32.01-6.41 44.79-57.63 44.81-121.65 76.8-192.081 108.79h-25.62C262.51 927.949 115.258 761.569 64.017 524.8a973.107 973.107 0 0 1-12.8-294.38c6.41-12.8 12.8-19.19 19.21-25.6L499.424 0.061h25.62l428.995 204.76c12.8 6.41 19.21 12.8 19.21 25.6 6.39 57.59 12.8 166.4-12.82 300.769zM525.044 723.17c-51.22 0-108.852-25.6-147.272-63.98-83.23-83.19-83.23-211.19 0-294.38s211.292-83.19 294.523 0c70.43 70.39 76.84 185.59 19.21 268.78l134.472 134.39c12.8 12.8 12.8 31.99 0 44.79-6.41 6.389-12.8 6.389-25.62 6.389-12.8 0-19.211 0-25.6-6.39l-128.062-128c-38.42 25.6-76.841 38.4-121.651 38.4z m102.44-313.57c-25.62-31.99-64.04-44.79-102.44-44.79-38.42 0-76.841 19.21-102.462 44.79-57.61 57.61-57.61 147.19 0 204.78 57.63 51.2 147.272 51.2 204.903 0 57.63-57.59 57.63-147.17 0-204.78z" fill="" p-id="1901"></path></svg>