<?xml version="1.0" standalone="no"?><!DOCTYPE svg PUBLIC "-//W3C//DTD SVG 1.1//EN" "http://www.w3.org/Graphics/SVG/1.1/DTD/svg11.dtd"><svg t="1589164658332" class="icon" viewBox="0 0 1024 1024" version="1.1" xmlns="http://www.w3.org/2000/svg" p-id="9202" xmlns:xlink="http://www.w3.org/1999/xlink" width="64" height="64"><defs><style type="text/css"></style></defs><path d="M512 102.2464c200.832 0 364.5952 164.3264 364.5952 365.824 0 201.5232-163.7376 365.8752-364.5952 365.8752-200.8064 0-364.5952-164.352-364.5952-365.8752C147.4048 266.5728 311.1936 102.2464 512 102.2464zM290.7904 578.0992l-0.512 144.1536 42.24 0c0 0 12.6464-14.6432 29.3376-3.0464 16.6656 11.5968 51.8144 25.6512 92.1856 37.6064 0 0 61.2352 13.0048 122.4192-0.3584 61.2608-13.3376 110.1056-48.896 110.1056-48.896s56.5504-44.9536 55.8592-120.8064c0.3584-32-18.7392-95.9232-73.344-126.3104l-169.1392-97.5616c0 0-34.4064-14.4128-49.0496-38.272 0 0-34.0736-49.8944 14.2848-97.664 0 0 36.5056-39.3728 126.592-0.3584 0 0 83.6608 37.1968 102.4 132.0448l44.2112-1.2288-1.9456-147.328-42.3424-0.0256c0 0-11.392 16.0768-28.2112 6.6816 0 0-71.6544-48.4864-162.0992-42.496 0 0-93.568-1.7664-168.704 63.232 0 0-78.72 68.9152-34.56 181.376 0 0 17.152 34.3552 78.3872 65.9712l139.136 81.1776c0 0 64.0256 31.3088 67.1488 62.8992 0 0 23.1424 77.7472-67.6352 95.3088 0 0-88.5504 6.1952-144.5376-64.0512-39.2704-50.048-38.9632-81.8432-38.9632-81.8432L290.7904 578.0992z" p-id="9203"></path><path d="M440.4736 800.7936c71.3472 0 138.0352 20.5056 194.5344 55.9616 8.4992 5.2992 16.5376 11.1104 25.5488 16.1536 26.5472 14.9504 57.1392 23.4496 89.6512 23.4496 41.856 0 80.5376-14.1056 111.5392-37.888 0.2048 0.256 0.4608 0.4608 0.6912 0.6912-37.76 33.4592-82.3552 59.2896-131.3536 75.0592-5.0944 1.6384-6.5024 2.048-10.9056 3.3536l0 0c-0.0512 0-0.1024 0-0.1536 0.0512l0 0c-0.3072 0.0512-0.5888 0.1536-0.896 0.256-0.0512 0-0.1024 0-0.1024 0.0512-0.0512 0-0.1024 0-0.1536 0s-0.0512 0.0512-0.1024 0.0512c-0.1024 0-0.256 0.0512-0.3584 0.1024-0.1024 0-0.256 0.0512-0.3072 0.1024-0.4096 0.1024-0.7424 0.2048-1.1008 0.3072s-0.6912 0.1536-0.9984 0.256c0.3072-0.1024 0.64-0.1536 0.9984-0.256-0.8448 0.2048-1.6896 0.4608-2.56 0.6912-1.6128 0.4096-3.2 0.8448-4.8384 1.2544-29.056 7.4496-61.5424 14.0544-92.9024 14.0544-72.8064 0-140.6976-15.9488-197.9392-52.7616-3.6864-2.3552-7.168-4.9408-10.8544-7.2448-1.0752-0.64-2.4832-1.5104-4.3008-2.6624-28.1088-17.4592-59.1616-35.5584-94.4896-35.5584-43.392 0-84.8384 4.1472-122.7776 39.6544 1.792-5.1968 11.008-14.2592 10.8032-14.4128 41.7792-34.3552 48.2304-35.9936 93.6192-56.6528 2.3552-0.7424 41.9584-13.5936 44.3136-14.3104C367.6672 801.0496 404.9408 800.7936 440.4736 800.7936L440.4736 800.7936 440.4736 800.7936zM720.0512 937.6c-0.3072 0.0512-0.5888 0.1536-0.896 0.256C719.4624 937.7536 719.744 937.6512 720.0512 937.6L720.0512 937.6zM718.0032 938.1376M378.7264 822.144l-17.792-6.5024-5.6064 15.4624 16.512 5.9904-1.92 5.1968-16.4864-5.9904-7.3216 20.1472-5.9392-2.1504 16.7424-46.1056 23.7568 8.6528L378.7264 822.144zM375.8592 849.408c2.5088-5.1968 5.9392-8.6528 10.3168-10.24 4.352-1.6128 9.0368-1.2032 14.0032 1.2544 4.7616 2.2528 7.7568 5.504 9.0368 9.7024 1.3056 4.1984 0.6912 8.8576-1.7664 14.0032-2.4064 4.9408-5.7856 8.2944-10.1376 9.9584-4.3776 1.6384-8.96 1.3568-13.7728-0.9984-4.7104-2.304-7.7568-5.6064-9.1392-9.9072C372.992 858.8032 373.504 854.2464 375.8592 849.408zM381.6192 851.9424c-1.7408 3.6608-2.2272 6.9376-1.408 9.9584 0.8192 2.944 2.7648 5.1968 5.8624 6.7072 3.2 1.5616 6.1184 1.6896 8.7808 0.4608 2.6624-1.2032 4.9152-3.7376 6.784-7.552 1.8432-3.84 2.4576-7.1936 1.7408-10.0608-0.6656-2.8928-2.6112-5.0944-5.8112-6.6048-3.1232-1.5616-6.1184-1.6384-8.9856-0.4096C385.7664 845.7472 383.4368 848.256 381.6192 851.9424zM413.184 867.84c2.9184-4.992 6.6304-8.0896 11.1104-9.3952 4.5056-1.2544 9.1136-0.4608 13.9008 2.3552 4.5312 2.6624 7.2704 6.0928 8.2176 10.3936s-0.0256 8.9088-2.8928 13.7984c-2.7904 4.7616-6.4256 7.808-10.9056 9.1392-4.4544 1.3056-9.0368 0.5888-13.6192-2.0992-4.5312-2.6624-7.296-6.1952-8.3456-10.5984C409.6 877.0048 410.4448 872.4992 413.184 867.84zM418.7136 870.912c-2.0224 3.456-2.7392 6.7072-2.176 9.7536 0.5888 3.0464 2.3808 5.4016 5.3504 7.1424 3.0464 1.792 5.9392 2.2016 8.704 1.2032 2.7392-1.0496 5.1968-3.4048 7.3472-7.04 2.1504-3.712 2.9952-6.9376 2.56-9.9072-0.4608-2.8928-2.2016-5.248-5.248-6.9888-3.0208-1.792-5.9904-2.1504-8.9344-1.1008C423.3728 864.9984 420.8384 867.3024 418.7136 870.912zM473.2416 921.4464l-5.76-2.3552 2.176-5.4016-0.1024-0.0512c-4.0448 3.1488-8.5504 3.712-13.5424 1.6896-4.096-1.6896-6.784-4.4544-8.0128-8.3968-1.2544-3.8912-0.8448-8.2944 1.152-13.312 2.2016-5.3504 5.2992-9.088 9.344-11.2128 4.0448-2.1504 8.2944-2.304 12.7232-0.512s6.9376 4.8128 7.5264 9.0624l0.128 0.0512 8.1152-19.9424 5.76 2.304L473.2416 921.4464zM475.3664 899.7888c1.0496-2.6112 1.0752-5.0944 0.0768-7.552s-2.7392-4.1984-5.248-5.1968c-3.0464-1.2544-5.9136-1.0496-8.6016 0.512-2.688 1.5616-4.8384 4.3008-6.4256 8.192-1.4848 3.6608-1.792 6.8608-0.9472 9.6512 0.8192 2.7904 2.6624 4.7616 5.4784 5.888 2.7648 1.1008 5.4784 0.9984 8.0384-0.3584 2.6112-1.3056 4.5312-3.5584 5.7856-6.6048L475.3664 899.7888zM489.0624 916.5568c1.2288 1.5616 2.9696 2.9952 5.248 4.352 2.304 1.3056 4.5568 2.2016 6.7584 2.6624 6.7584 1.408 10.5984-0.3072 11.5968-5.0944 0.256-1.3568 0.1536-2.6624-0.3584-3.84-0.512-1.2544-1.3056-2.4064-2.4064-3.5072-1.1008-1.0496-3.2-2.7904-6.2976-5.248-4.352-3.4048-7.04-6.2464-8.192-8.6528-1.0752-2.3552-1.3568-4.8384-0.8448-7.5008 0.8448-3.9936 3.0976-6.8608 6.7584-8.4992 3.712-1.6896 8.0128-2.048 12.8512-1.0496 4.8128 0.9984 8.192 2.304 10.1888 3.8912l-1.408 6.7584c-2.5088-2.6112-5.9392-4.352-10.3424-5.248-2.944-0.5888-5.504-0.4608-7.6032 0.4096s-3.3536 2.3552-3.7888 4.5568c-0.4096 1.9456-0.1024 3.6608 0.9472 5.1456 0.9984 1.4592 3.456 3.712 7.296 6.7072 4.2496 3.2 7.0912 6.144 8.5504 8.8064 1.408 2.6112 1.792 5.3504 1.2544 8.1408-0.8448 4.2496-3.0464 7.1424-6.6048 8.8064-3.5072 1.6128-8.0128 1.8432-13.3888 0.7424-1.9456-0.4096-4.096-1.1008-6.5024-2.1504-2.432-1.0496-4.1472-2.048-5.1456-3.0976L489.0624 916.5568zM531.968 900.4032c3.5584-1.9456 7.6288-2.8416 12.1856-2.6112 8.448 0.4608 12.3904 5.0944 11.9552 14.0032l-1.2032 22.5024-6.144-0.3584 0.3072-5.4016-0.2048 0c-2.6624 3.9936-6.2976 5.888-11.0592 5.6576-3.3792-0.2048-6.0416-1.2544-7.936-3.2s-2.7392-4.4544-2.6112-7.6032c0.3584-6.5024 4.4544-10.112 12.2368-10.752l10.4448-0.896c0.3072-5.76-1.8944-8.704-6.656-9.0112-4.1984-0.2048-8.0896 0.9984-11.6992 3.6608L531.968 900.4032zM541.44 917.0944c-2.8928 0.2048-4.8896 0.7936-6.0416 1.792s-1.792 2.4576-1.8944 4.352c-0.0512 1.6384 0.4608 3.0464 1.5616 4.1984 1.152 1.1008 2.688 1.6896 4.5824 1.792 2.688 0.1536 4.992-0.6912 6.8608-2.5088s2.8416-4.096 2.9952-6.9888l0.2048-3.3536L541.44 917.0944zM583.3984 886.5536c-1.2032-0.5376-2.5088-0.7936-3.84-0.7424-3.84 0.2048-5.7088 2.688-5.4528 7.5008l0.256 5.1968 8.192-0.4096 0.256 5.1456-8.192 0.4096 1.4592 29.8496-6.0928 0.3072-1.5104-29.8496-5.9392 0.3072-0.256-5.1456 5.9392-0.3072-0.256-5.504c-0.2048-3.7376 0.7424-6.7584 2.7904-9.0112s4.7616-3.456 8.0896-3.6096c1.7408-0.1024 3.2 0.0512 4.2496 0.4096L583.3984 886.5536zM618.5984 912.512l-24.2432 3.5072c0.64 3.712 2.048 6.4 4.3008 8.1408 2.2016 1.7408 5.0432 2.3552 8.4992 1.8432 3.84-0.5376 7.2448-2.304 10.1376-5.248l0.7936 5.504c-2.7392 2.6112-6.656 4.2496-11.6992 4.9408-4.992 0.7424-9.1392-0.3072-12.3904-3.0464-3.3024-2.7392-5.3504-6.9888-6.144-12.6464-0.7424-5.2992 0.1536-9.9072 2.7392-13.7984 2.56-3.84 6.144-6.144 10.752-6.8096 4.5056-0.64 8.2432 0.3072 11.2384 2.8416 2.944 2.56 4.8128 6.4512 5.5552 11.648L618.5984 912.512zM611.7376 908.4928c-0.4608-3.1488-1.5616-5.4528-3.2512-6.9376s-3.8912-2.0992-6.5536-1.6896c-2.4576 0.3584-4.4544 1.5616-5.9392 3.6608-1.5616 2.048-2.304 4.608-2.3552 7.6032L611.7376 908.4928zM647.9104 921.5488c-1.152 0.9984-2.8416 1.792-5.0944 2.3552-6.0928 1.4592-9.9584-1.2032-11.5456-7.9616l-4.7616-19.6608-5.8624 1.408-1.2032-4.992 5.8624-1.408-1.9968-8.192 5.5552-3.3536 2.4576 10.112 8.448-2.048 1.2032 4.992-8.448 2.048 4.4544 18.6112c0.5376 2.2016 1.3056 3.7376 2.304 4.5056 0.9984 0.7936 2.4064 0.9984 4.1472 0.5376 1.3568-0.3584 2.4576-0.9984 3.2512-1.9968L647.9104 921.5488zM672.7424 876.8512l-1.792 43.2896c-0.3584 8.0128-3.0464 12.9024-8.1408 14.6432-1.4592 0.512-2.7392 0.7936-3.8912 0.8448l-1.792-5.1456c1.3056 0.0512 2.4576-0.1536 3.5072-0.512 2.688-0.896 4.1472-3.1488 4.352-6.7072l0.4608-6.912-24.3968-28.544 6.5024-2.2528 17.2544 21.8624 1.6384 2.5088 0.1536-0.0512c-0.1024-0.64-0.1536-1.6384-0.2048-2.944l0.4096-28.0576L672.7424 876.8512z" p-id="9204"></path></svg>