<?xml version="1.0" standalone="no"?><!DOCTYPE svg PUBLIC "-//W3C//DTD SVG 1.1//EN" "http://www.w3.org/Graphics/SVG/1.1/DTD/svg11.dtd"><svg t="1556156075658" class="icon" style="" viewBox="0 0 1024 1024" version="1.1" xmlns="http://www.w3.org/2000/svg" p-id="16067" xmlns:xlink="http://www.w3.org/1999/xlink" width="200" height="200"><defs><style type="text/css"></style></defs><path d="M857.6 876.416 166.4 876.416c-14.784 0-28.224-8.448-34.624-21.76-6.4-13.376-4.544-29.184 4.672-40.704l239.36-297.792L136.384 215.936C127.168 204.416 125.376 188.608 131.84 175.36S151.68 153.6 166.4 153.6l691.2 0C878.72 153.6 896 170.752 896 192s-17.28 38.4-38.4 38.4L246.144 230.4 455.04 492.352c11.2 14.016 11.136 33.984-0.064 48l-208.448 259.328L857.6 799.68c21.12 0 38.4 17.216 38.4 38.4S878.72 876.416 857.6 876.416z" p-id="16068"></path><path d="M857.6 873.152l-704 0c-14.784 0-28.224-8.448-34.624-21.76-6.4-13.376-4.544-29.184 4.672-40.704l239.36-297.792L123.648 212.608C114.432 201.088 112.64 185.344 119.04 172.032s19.84-21.76 34.624-21.76l704 0c21.248 0 38.4 17.216 38.4 38.4s-17.152 38.4-38.4 38.4L233.408 227.072l208.896 261.952c11.2 14.016 11.136 33.984-0.064 48l-208.448 259.328L857.6 796.352c21.248 0 38.4 17.216 38.4 38.4S878.848 873.152 857.6 873.152z" p-id="16069"></path></svg>