<?xml version="1.0" standalone="no"?><!DOCTYPE svg PUBLIC "-//W3C//DTD SVG 1.1//EN" "http://www.w3.org/Graphics/SVG/1.1/DTD/svg11.dtd"><svg t="1565855841552" class="icon" viewBox="0 0 1024 1024" version="1.1" xmlns="http://www.w3.org/2000/svg" p-id="1767" xmlns:xlink="http://www.w3.org/1999/xlink" width="200" height="200"><defs><style type="text/css"></style></defs><path d="M905.95240508 324.73540391v-7.54958057c-0.49997197-36.74795801-0.99994482-76.645742-1.09993887-119.99333408a69.99611133 69.99611133 0 0 0-49.69723887-67.69623867A1746.05299717 1746.05299717 0 0 0 519.87385391 62.299983L512.42426826 62H509.2244457a1052.34153662 1052.34153662 0 0 0-184.98972304 24.99861094 2175.37914551 2175.37914551 0 0 0-156.99127764 42.59763369 69.99611133 69.99611133 0 0 0-48.89728388 67.29626162c0 34.99805567-0.29998301 67.59624463-0.5999669 98.14454737v17.9989998c-3.29981661 306.03299854-4.99972237 445.67523984 311.88267334 623.61535517a164.99083359 164.99083359 0 0 0 83.64535312 24.99861094 169.24059756 169.24059756 0 0 0 82.84539727-24.29865c315.73245938-173.89033945 314.13254854-293.28370664 309.83278711-612.61596562zM553.72197325 860.20565557a83.34537011 83.34537011 0 0 1-40.79773302 13.44925283 79.44558662 79.44558662 0 0 1-40.79773388-13.84923077c-271.18493438-152.49152813-270.28498448-243.58646777-266.985167-545.71968281v-17.9989998c0.29998301-26.99849971 0.5999669-55.54691367 0.5999669-85.99522236a2168.87950635 2168.87950635 0 0 1 137.99233301-36.94794698 979.94555859 979.94555859 0 0 1 166.84073173-22.99872305 1662.60763301 1662.60763301 0 0 1 306.23298663 59.99666748c0 38.8478417 0.5999669 74.99583369 1.09993886 108.19398867v7.54958057c4.44975293 311.63268691 5.44969687 385.67857325-264.23531982 534.32031622zM711.71319658 328.38520098a32.04821953 32.04821953 0 0 0-22.99872217 9.74945829l-219.98777871 224.58752315-107.99400058-109.99388935a32.14821357 32.14821357 0 0 0-45.99744434 0 33.49813887 33.49813887 0 0 0 0 46.79740019l130.99272276 133.69257246a31.99822207 31.99822207 0 0 0 45.99744433 0l242.98650088-248.08621728a33.49813887 33.49813887 0 0 0 0-46.79740019 31.59824414 31.59824414 0 0 0-23.04871963-9.94944727z" p-id="1768" fill="#ffffff"></path></svg>