<?xml version="1.0" standalone="no"?><!DOCTYPE svg PUBLIC "-//W3C//DTD SVG 1.1//EN" "http://www.w3.org/Graphics/SVG/1.1/DTD/svg11.dtd"><svg t="1562823983534" class="icon" viewBox="0 0 1024 1024" version="1.1" xmlns="http://www.w3.org/2000/svg" p-id="6936" xmlns:xlink="http://www.w3.org/1999/xlink" width="200" height="200"><defs><style type="text/css"></style></defs><path d="M895.715 74.265c-70.85 0-128.285 57.436-128.285 128.285 0 49.673 28.234 92.749 69.528 114.063l-150.016 289.45a127.778 127.778 0 0 0-32.127 6.366l-207.5-142.621c15.817-21.331 25.176-47.736 25.176-76.331 0-70.85-57.436-128.285-128.286-128.285S215.92 322.628 215.92 393.477c0 37.392 16.002 71.042 41.525 94.49l-129.73 233.078C57.128 721.354 0 778.664 0 849.323c0 70.851 57.436 128.285 128.285 128.285 70.85 0 128.286-57.435 128.286-128.285 0-44.53-22.693-83.757-57.142-106.759l123.85-222.511a129.214 129.214 0 0 0 20.927 1.708c14.051 0 27.572-2.267 40.225-6.441l207.862 142.868c-15.604 21.247-24.827 47.471-24.827 75.853 0 70.85 57.436 128.285 128.285 128.285s128.285-57.436 128.285-128.285c0-47.115-25.405-88.291-63.259-110.596l152.26-293.779C975.693 321.208 1024 267.524 1024 202.55c0-70.85-57.436-128.285-128.285-128.285z m-767.43 829.343c-29.98 0-54.285-24.304-54.285-54.285 0-29.98 24.305-54.285 54.285-54.285 29.981 0 54.286 24.305 54.286 54.285 0 29.982-24.305 54.285-54.286 54.285z m215.921-455.846c-29.98 0-54.285-24.304-54.285-54.285 0-29.98 24.305-54.285 54.285-54.285 29.981 0 54.286 24.305 54.286 54.285 0 29.981-24.305 54.285-54.286 54.285z m351.545 340.564c-29.98 0-54.285-24.305-54.285-54.285s24.305-54.285 54.285-54.285 54.285 24.305 54.285 54.285-24.305 54.285-54.285 54.285z m199.964-531.491c-29.98 0-54.285-24.305-54.285-54.285s24.305-54.285 54.285-54.285S950 172.569 950 202.55s-24.305 54.285-54.285 54.285z" fill="#ffffff" p-id="6937"></path></svg>