<?xml version="1.0" standalone="no"?><!DOCTYPE svg PUBLIC "-//W3C//DTD SVG 1.1//EN" "http://www.w3.org/Graphics/SVG/1.1/DTD/svg11.dtd"><svg t="1587973521622" class="icon" viewBox="0 0 1024 1024" version="1.1" xmlns="http://www.w3.org/2000/svg" p-id="1270" xmlns:xlink="http://www.w3.org/1999/xlink" width="200" height="200"><defs><style type="text/css"></style></defs><path d="M308.093 188.302c31.849-31.849 83.669-31.862 115.517-0.014l174.558 174.558c31.85 31.85 31.834 83.668-0.012 115.517L477.568 598.949c-15.493 15.495-15.492 40.617 0 56.107 15.495 15.494 40.617 15.494 56.107 0l120.588-120.585c62.794-62.793 62.794-164.953 0.016-227.733L479.719 132.18c-62.78-62.778-164.94-62.78-227.733 0.014L132.193 251.985c-62.793 62.793-62.79 164.956-0.013 227.734l55.108 55.108c15.493 15.493 40.614 15.493 56.109 0 15.49-15.493 15.492-40.616 0-56.109l-55.108-55.108c-31.85-31.85-31.837-83.669 0.013-115.518l119.791-119.79z" p-id="1271"></path><path d="M891.817 544.281l-55.106-55.109c-15.493-15.493-40.615-15.493-56.109 0-15.493 15.493-15.493 40.615 0 56.109l55.11 55.11c31.846 31.845 31.835 83.668-0.014 115.517l-119.792 119.79c-31.848 31.847-83.67 31.862-115.52 0.015l-174.555-174.56c-31.85-31.847-31.836-83.667 0.013-115.518l120.6-120.599c15.493-15.494 15.493-40.616 0-56.108-15.494-15.494-40.616-15.492-56.111 0l-120.598 120.6c-62.793 62.793-62.79 164.958-0.013 227.734L544.281 891.82c62.779 62.78 164.94 62.78 227.73-0.017l119.796-119.79c62.792-62.793 62.792-164.95 0.01-227.732z" p-id="1272"></path></svg>