<?xml version="1.0" standalone="no"?><!DOCTYPE svg PUBLIC "-//W3C//DTD SVG 1.1//EN" "http://www.w3.org/Graphics/SVG/1.1/DTD/svg11.dtd"><svg t="1589173015516" class="icon" viewBox="0 0 1024 1024" version="1.1" xmlns="http://www.w3.org/2000/svg" p-id="3364" xmlns:xlink="http://www.w3.org/1999/xlink" width="64" height="64"><defs><style type="text/css"></style></defs><path d="M722.9952 541.05088c83.57888-43.31008 140.73344-130.54464 140.73344-231.17824 0-143.75424-116.53632-260.28032-260.28032-260.28032-143.74912 0-260.28544 116.5312-260.28544 260.28032 0 99.42528 55.77216 185.79968 137.71776 229.632-174.06464 52.06016-303.13472 214.75328-298.81344 399.72864 0 36.45952 49.29024 31.44704 49.29024 1.80736 0-204.83072 166.05184-370.88256 370.88768-370.88256 204.83072 0 370.88256 166.05696 370.88256 370.88256 0 24.85248 43.26912 21.09952 43.26912-1.80736 4.08064-183.2192-122.12224-344.448-293.4016-398.1824z m-123.75552-18.99008c-5.02784 0-10.01472 0.2048-15.00672 0.38912-108.75392-9.14944-194.18112-100.25984-194.18112-211.3792 0-117.19168 95.0016-212.18816 212.19328-212.18816 117.19168 0 217.48736 95.0016 217.48736 212.18816 0 111.6416-91.0336 203.07968-200.97536 211.49696a411.6736 411.6736 0 0 0-19.51744-0.50688z m-262.8096 29.98784c0.33792 0 0.67072 0.0256 1.00352 0.0256 30.56128 0 31.22176-49.64352-1.00352-49.64352-0.82432 0-1.6384-0.04608-2.46272-0.05632l-0.04608-0.93696c-4.29056 0-8.52992 0.1792-12.76416 0.34304-91.10528-7.21408-167.00416-78.2848-167.00416-170.74176 0-97.5872 84.53632-176.6912 182.27712-176.6912 32.27648 0 23.77216-41.04704-9.59488-41.04704-119.90016 0-217.09312 97.03936-217.09312 216.73472 0 79.54944 47.63136 151.38304 114.75968 190.65856C91.39712 569.4208 3.67616 704.72192 7.168 854.10304c0 30.37184 46.40256 26.1888 46.40256 1.50528 0-170.56256 112.01536-303.53408 282.85952-303.53408v-0.0256z" fill="" p-id="3365"></path></svg>