<?xml version="1.0" standalone="no"?><!DOCTYPE svg PUBLIC "-//W3C//DTD SVG 1.1//EN" "http://www.w3.org/Graphics/SVG/1.1/DTD/svg11.dtd"><svg t="1558674877245" class="icon" style="" viewBox="0 0 1024 1024" version="1.1" xmlns="http://www.w3.org/2000/svg" p-id="3648" xmlns:xlink="http://www.w3.org/1999/xlink" width="200" height="200"><defs><style type="text/css"></style></defs><path d="M276.573 525.849a89.29 89.29 0 0 1-45.555 11.611 89.322 89.322 0 0 1-63.426-24.121 89.325 89.325 0 0 1-25.905-64.32 89.322 89.322 0 0 1 25.905-63.421 89.303 89.303 0 0 1 63.426-25.011 89.314 89.314 0 0 1 62.532 25.011 89.323 89.323 0 0 1 26.799 63.421 47.376 47.376 0 0 1 0 19.655l53.599 29.477-11.616 21.443-51.81-25.909a83.17 83.17 0 0 1-33.949 32.164z m98.264 173.296l-73.249 37.521v11.611a55.388 55.388 0 0 1-16.083 37.521 48.226 48.226 0 0 1-37.516 16.077 48.24 48.24 0 0 1-37.521-16.077 50.923 50.923 0 0 1-15.184-37.521 48.258 48.258 0 0 1 15.184-37.521A49.14 49.14 0 0 1 248.883 692a66.188 66.188 0 0 1 22.333 0 51.945 51.945 0 0 1 16.972 13.399l74.143-35.731 12.506 29.477z m276.035-138.462v8.933a89.547 89.547 0 0 1 0 25.909 77.621 77.621 0 0 1 0 25.011 39.91 39.91 0 0 1 0 11.611l64.319 31.267a48.22 48.22 0 0 1 37.513-14.29 56.27 56.27 0 0 1 41.097 16.078 50.017 50.017 0 0 1 16.969 38.41 50.901 50.901 0 0 1-15.18 37.521 49.145 49.145 0 0 1-37.521 15.188 50.953 50.953 0 0 1-38.411-15.188 55.39 55.39 0 0 1-16.086-37.521 41.132 41.132 0 0 1 0-17.866l-63.422-32.155a67.11 67.11 0 0 1-17.866 23.223 147.898 147.898 0 0 1-28.588 19.654 89.392 89.392 0 0 1-33.054 8.933V669.67H538.31v33.943a113.468 113.468 0 0 1-50.916-20.544 96.544 96.544 0 0 1-27.693-29.478l-63.421 32.155-11.616-22.332 65.214-31.267a94.66 94.66 0 0 1-8.043-37.521 101.878 101.878 0 0 1 8.043-38.41l-65.214-31.266 11.616-22.333 63.421 31.266a110.812 110.812 0 0 1 33.054-31.266 126.123 126.123 0 0 1 45.555-16.078v42.877h25.02v-42.877a121.315 121.315 0 0 1 46.445 16.977 82.118 82.118 0 0 1 33.054 32.155l60.744-28.587a51.864 51.864 0 0 1 0-20.545 89.343 89.343 0 0 1 24.121-62.531c34.24-35.523 90.787-36.561 126.311-2.32 0.785 0.75 1.57 1.535 2.329 2.32a81.264 81.264 0 0 1 25.9 63.421 80.377 80.377 0 0 1-25.9 62.532 89.294 89.294 0 0 1-62.532 26.799 108 108 0 0 1-45.563-12.501 83.928 83.928 0 0 1-33.046-33.054l-64.321 29.478zM457.023 273.035a125.94 125.94 0 0 1-34.838-83.076 121.487 121.487 0 0 1 35.732-89.331 129.527 129.527 0 0 1 89.327-36.622 124.146 124.146 0 0 1 89.33 36.622 122.38 122.38 0 0 1 36.631 89.331 121.492 121.492 0 0 1-30.376 83.076 116.967 116.967 0 0 1-76.82 39.309v150.074h-29.478V312.344a123.24 123.24 0 0 1-79.508-39.309z m143.819 571.718a71.516 71.516 0 0 1 17.866 43.775 65.227 65.227 0 0 1-21.435 50.92 68.783 68.783 0 0 1-50.03 20.545 66.967 66.967 0 0 1-48.233-21.443 72.342 72.342 0 0 1-20.549-50.021 71.486 71.486 0 0 1 17.866-46.454 67.028 67.028 0 0 1 42.881-22.333v-81.287h24.121v81.287a73.245 73.245 0 0 1 37.513 25.011z" p-id="3649"></path></svg>